<svg width="20" height="20" viewBox="0 0 20 20" fill="none" xmlns="http://www.w3.org/2000/svg">
<path d="M6.25 16.2502C6.25 15.4455 6.52378 14.6315 7.19243 14.1838C7.99434 13.6469 8.96033 13.3335 10 13.3335C11.0397 13.3335 12.0057 13.6469 12.8076 14.1838C13.4762 14.6315 13.75 15.4455 13.75 16.2502" stroke="#B0B7C3" stroke-width="1.5" stroke-linecap="round" stroke-linejoin="round"/>
<path d="M9.99935 11.2502C11.1499 11.2502 12.0827 10.3174 12.0827 9.16683C12.0827 8.01624 11.1499 7.0835 9.99935 7.0835C8.84876 7.0835 7.91602 8.01624 7.91602 9.16683C7.91602 10.3174 8.84876 11.2502 9.99935 11.2502Z" stroke="#B0B7C3" stroke-width="1.5" stroke-linecap="round" stroke-linejoin="round"/>
<path d="M14.584 9.1665C15.5091 9.1665 16.3686 9.48059 17.0818 10.0185C17.6864 10.4745 17.9173 11.2458 17.9173 12.003V12.0832" stroke="#B0B7C3" stroke-width="1.5" stroke-linecap="round" stroke-linejoin="round"/>
<path d="M14.5827 7.08333C15.5032 7.08333 16.2493 6.33714 16.2493 5.41667C16.2493 4.49619 15.5032 3.75 14.5827 3.75C13.6622 3.75 12.916 4.49619 12.916 5.41667C12.916 6.33714 13.6622 7.08333 14.5827 7.08333Z" stroke="#B0B7C3" stroke-width="1.5" stroke-linecap="round" stroke-linejoin="round"/>
<path d="M5.41732 9.1665C4.49221 9.1665 3.6327 9.48059 2.91945 10.0185C2.31487 10.4745 2.08398 11.2458 2.08398 12.003V12.0832" stroke="#B0B7C3" stroke-width="1.5" stroke-linecap="round" stroke-linejoin="round"/>
<path d="M5.41667 7.08333C6.33714 7.08333 7.08333 6.33714 7.08333 5.41667C7.08333 4.49619 6.33714 3.75 5.41667 3.75C4.49619 3.75 3.75 4.49619 3.75 5.41667C3.75 6.33714 4.49619 7.08333 5.41667 7.08333Z" stroke="#B0B7C3" stroke-width="1.5" stroke-linecap="round" stroke-linejoin="round"/>
</svg>
